<svg xmlns="http://www.w3.org/2000/svg" width="190" height="190" viewBox="0 0 190 190"><path fill="#ae00ff" d="m56.498 99.669 14.559 14.559c1.566 1.566 4.06 1.566 5.626 0l11.862 -11.862c5.046 -4.756 11.282 -4.554 16.357 0.058L128.423 125.945c1.566 1.566 4.06 1.566 5.626 0l26.276 -26.276c1.566 -1.566 1.566 -4.06 0 -5.626L134.05 67.767c-1.566 -1.566 -4.06 -1.566 -5.626 0l-23.608 23.608c-5.018 4.524 -11.137 4.699 -16.154 0.058l-11.978 -11.978c-1.566 -1.566 -4.06 -1.566 -5.626 0l-14.559 14.559c-1.537 1.595 -1.537 4.118 0 5.655"/><path fill="#a81bcd" d="m41.678 124.002 9.455 9.455c1.566 1.566 4.06 1.566 5.626 0l9.455 -9.455c1.566 -1.566 1.566 -4.06 0 -5.626l-9.455 -9.455c-1.566 -1.566 -4.06 -1.566 -5.626 0l-9.455 9.455c-1.566 1.566 -1.566 4.089 0 5.626m0 -48.666 9.455 9.455c1.566 1.566 4.06 1.566 5.626 0l9.455 -9.455c1.566 -1.566 1.566 -4.06 0 -5.626l-9.455 -9.455c-1.566 -1.566 -4.06 -1.566 -5.626 0l-9.455 9.455c-1.566 1.566 -1.566 4.06 0 5.626m-12.326 23.579 6.903 6.903c1.131 1.131 2.958 1.131 4.118 0l6.874 -6.903c1.131 -1.131 1.131 -2.958 0 -4.118l-6.903 -6.903c-1.131 -1.131 -2.958 -1.131 -4.118 0l-6.903 6.903c-1.102 1.16 -1.102 2.987 0.029 4.118"/><path fill="#ae00ff" d="m73.464 132.326 20.678 20.678c1.566 1.566 4.06 1.566 5.626 0l20.679 -20.678c1.566 -1.566 1.566 -4.06 0 -5.626L99.769 106.021c-1.566 -1.566 -4.06 -1.566 -5.626 0L73.464 126.699c-1.566 1.566 -1.566 4.06 0 5.626m-1.856 -67.169L94.172 87.692c1.566 1.566 4.06 1.566 5.626 0l22.535 -22.535c1.566 -1.566 1.566 -4.06 0 -5.626L99.798 36.996c-1.566 -1.566 -4.06 -1.566 -5.626 0L71.608 59.559c-1.566 1.537 -1.566 4.06 0 5.597"/><g transform="translate(-9.14 -24.19)scale(3.05285)"/></svg>