<svg xmlns="http://www.w3.org/2000/svg" width="1000" height="1000" id="empty" style=""><g id="icon"><path fill="#ae00ff" d="M200.79427883541442 359.50952802701454L250.9942788354144 409.7095280270145C256.3942788354144 415.1095280270145 264.99427883541443 415.1095280270145 270.3942788354144 409.7095280270145L311.2942788354144 368.8095280270145C328.6942788354144 352.4095280270145 350.1942788354144 353.1095280270145 367.6942788354144 369.00952802701454L448.7942788354144 450.1095280270145C454.1942788354144 455.50952802701454 462.7942788354144 455.50952802701454 468.1942788354144 450.1095280270145L558.7942788354144 359.50952802701454C564.1942788354145 354.1095280270145 564.1942788354145 345.50952802701454 558.7942788354144 340.1095280270145L468.1942788354144 249.5095280270145C462.7942788354144 244.1095280270145 454.1942788354144 244.1095280270145 448.7942788354144 249.5095280270145L367.3942788354144 330.9095280270145C350.0942788354144 346.50952802701454 328.99427883541443 347.1095280270145 311.6942788354144 331.1095280270145L270.3942788354144 289.8095280270145C264.99427883541443 284.4095280270145 256.3942788354144 284.4095280270145 250.9942788354144 289.8095280270145L200.79427883541442 340.00952802701454C195.4942788354144 345.50952802701454 195.4942788354144 354.2095280270145 200.79427883541442 359.50952802701454Z " transform="matrix(1.5264259701105969,0,0,1.5264261732684297,-9.140006243431419,-24.189281055159157)"></path><path fill="#a81bcd" d="M149.69427883541442 443.40952802701446L182.29427883541445 476.0095280270145C187.69427883541442 481.40952802701446 196.29427883541445 481.40952802701446 201.69427883541442 476.0095280270145L234.29427883541445 443.40952802701446C239.69427883541445 438.0095280270145 239.69427883541445 429.40952802701446 234.29427883541445 424.0095280270145L201.69427883541442 391.40952802701446C196.29427883541445 386.0095280270145 187.69427883541442 386.0095280270145 182.29427883541445 391.40952802701446L149.69427883541442 424.0095280270145C144.29427883541445 429.40952802701446 144.29427883541445 438.10952802701445 149.69427883541442 443.40952802701446Z " transform="matrix(1.5264259701105969,0,0,1.5264261732684297,-9.140006243431419,-24.189281055159157)"></path><path fill="#a81bcd" d="M149.69427883541442 275.6095280270145L182.29427883541445 308.2095280270145C187.69427883541442 313.6095280270145 196.29427883541445 313.6095280270145 201.69427883541442 308.2095280270145L234.29427883541445 275.6095280270145C239.69427883541445 270.2095280270145 239.69427883541445 261.6095280270145 234.29427883541445 256.2095280270145L201.69427883541442 223.6095280270145C196.29427883541445 218.20952802701453 187.69427883541442 218.20952802701453 182.29427883541445 223.6095280270145L149.69427883541442 256.2095280270145C144.29427883541445 261.6095280270145 144.29427883541445 270.2095280270145 149.69427883541442 275.6095280270145Z " transform="matrix(1.5264259701105969,0,0,1.5264261732684297,-9.140006243431419,-24.189281055159157)"></path><path fill="#a81bcd" d="M107.19427883541444 356.9095280270145L130.99427883541443 380.7095280270145C134.89427883541444 384.6095280270145 141.19427883541442 384.6095280270145 145.19427883541442 380.7095280270145L168.89427883541444 356.9095280270145C172.79427883541445 353.00952802701454 172.79427883541445 346.7095280270145 168.89427883541444 342.7095280270145L145.09427883541446 318.9095280270145C141.19427883541442 315.00952802701454 134.89427883541444 315.00952802701454 130.89427883541444 318.9095280270145L107.09427883541444 342.7095280270145C103.29427883541445 346.7095280270145 103.29427883541445 353.00952802701454 107.19427883541444 356.9095280270145Z " transform="matrix(1.5264259701105969,0,0,1.5264261732684297,-9.140006243431419,-24.189281055159157)"></path><path fill="#ae00ff" d="M259.2942788354144 472.10952802701445L330.5942788354144 543.4095280270144C335.99427883541443 548.8095280270145 344.5942788354144 548.8095280270145 349.99427883541443 543.4095280270144L421.2942788354144 472.10952802701445C426.6942788354144 466.70952802701447 426.6942788354144 458.10952802701445 421.2942788354144 452.70952802701447L349.99427883541443 381.40952802701446C344.5942788354144 376.0095280270145 335.99427883541443 376.0095280270145 330.5942788354144 381.40952802701446L259.2942788354144 452.70952802701447C253.8942788354144 458.10952802701445 253.8942788354144 466.70952802701447 259.2942788354144 472.10952802701445Z " transform="matrix(1.5264259701105969,0,0,1.5264261732684297,-9.140006243431419,-24.189281055159157)"></path><path fill="#ae00ff" d="M252.8942788354144 240.5095280270145L330.6942788354144 318.2095280270145C336.0942788354144 323.6095280270145 344.6942788354144 323.6095280270145 350.0942788354144 318.2095280270145L427.7942788354144 240.5095280270145C433.1942788354144 235.1095280270145 433.1942788354144 226.5095280270145 427.7942788354144 221.1095280270145L350.0942788354144 143.40952802701452C344.6942788354144 138.0095280270145 336.0942788354144 138.0095280270145 330.6942788354144 143.40952802701452L252.8942788354144 221.20952802701453C247.4942788354144 226.5095280270145 247.4942788354144 235.20952802701453 252.8942788354144 240.5095280270145Z " transform="matrix(1.5264259701105969,0,0,1.5264261732684297,-9.140006243431419,-24.189281055159157)"></path><g transform="matrix(3.0528519402211938,0,0,3.0528523465368593,-9.140006243431419,-24.189281055159157)"></g></g></svg>