<svg width="1000" height="1000" viewBox="0 0 1000 1000" xmlns="http://www.w3.org/2000/svg"><defs/><path fill="#701f95" transform="matrix(0.48436737691645554 0 0 0.48436737691645565 8.952608636634757 58.444504389553174)" d="M 387.73681907098 927.71278949347 L 437.93681907098 977.91278949347 C 443.33681907098 983.31278949347 451.93681907098 983.31278949347 457.33681907098 977.91278949347 L 498.23681907098 937.01278949347 C 515.63681907098 920.61278949347 537.13681907098 921.31278949347 554.63681907098 937.21278949347 L 635.73681907098 1018.31278949347 C 641.13681907098 1023.71278949347 649.73681907098 1023.71278949347 655.13681907098 1018.31278949347 L 745.73681907098 927.71278949347 C 751.13681907098 922.31278949347 751.13681907098 913.71278949347 745.73681907098 908.31278949347 L 655.13681907098 817.71278949347 C 649.73681907098 812.31278949347 641.13681907098 812.31278949347 635.73681907098 817.71278949347 L 554.33681907098 899.11278949347 C 537.03681907098 914.71278949347 515.93681907098 915.31278949347 498.63681907098 899.31278949347 L 457.33681907098 858.01278949347 C 451.93681907098 852.61278949347 443.33681907098 852.61278949347 437.93681907098 858.01278949347 L 387.73681907098 908.21278949347 C 382.43681907098 913.71278949347 382.43681907098 922.41278949347 387.73681907098 927.71278949347 Z"/><path fill="#863a9a" transform="matrix(0.48436737691645554 0 0 0.48436737691645565 8.952608636634757 58.444504389553174)" d="M 336.63681907098 1011.61278949347 L 369.23681907098 1044.21278949347 C 374.63681907098 1049.61278949347 383.23681907098 1049.61278949347 388.63681907098 1044.21278949347 L 421.23681907098 1011.61278949347 C 426.63681907098 1006.21278949347 426.63681907098 997.61278949347 421.23681907098 992.21278949347 L 388.63681907098 959.61278949347 C 383.23681907098 954.21278949347 374.63681907098 954.21278949347 369.23681907098 959.61278949347 L 336.63681907098 992.21278949347 C 331.23681907098 997.61278949347 331.23681907098 1006.31278949347 336.63681907098 1011.61278949347 Z"/><path fill="#863a9a" transform="matrix(0.48436737691645554 0 0 0.48436737691645565 8.952608636634757 58.444504389553174)" d="M 336.63681907098 843.81278949347 L 369.23681907098 876.41278949347 C 374.63681907098 881.81278949347 383.23681907098 881.81278949347 388.63681907098 876.41278949347 L 421.23681907098 843.81278949347 C 426.63681907098 838.41278949347 426.63681907098 829.81278949347 421.23681907098 824.41278949347 L 388.63681907098 791.81278949347 C 383.23681907098 786.41278949347 374.63681907098 786.41278949347 369.23681907098 791.81278949347 L 336.63681907098 824.41278949347 C 331.23681907098 829.81278949347 331.23681907098 838.41278949347 336.63681907098 843.81278949347 Z"/><path fill="#863a9a" transform="matrix(0.48436737691645554 0 0 0.48436737691645565 8.952608636634757 58.444504389553174)" d="M 294.13681907098 925.11278949347 L 317.93681907098 948.91278949347 C 321.83681907098 952.81278949347 328.13681907098 952.81278949347 332.13681907098 948.91278949347 L 355.83681907098 925.11278949347 C 359.73681907098 921.21278949347 359.73681907098 914.91278949347 355.83681907098 910.91278949347 L 332.03681907098 887.11278949347 C 328.13681907098 883.21278949347 321.83681907098 883.21278949347 317.83681907098 887.11278949347 L 294.03681907098 910.91278949347 C 290.23681907098 914.91278949347 290.23681907098 921.21278949347 294.13681907098 925.11278949347 Z"/><path fill="#701f95" transform="matrix(0.48436737691645554 0 0 0.48436737691645565 8.952608636634757 58.444504389553174)" d="M 446.23681907098 1040.31278949347 L 517.53681907098 1111.61278949347 C 522.93681907098 1117.01278949347 531.53681907098 1117.01278949347 536.93681907098 1111.61278949347 L 608.23681907098 1040.31278949347 C 613.63681907098 1034.91278949347 613.63681907098 1026.31278949347 608.23681907098 1020.91278949347 L 536.93681907098 949.61278949347 C 531.53681907098 944.21278949347 522.93681907098 944.21278949347 517.53681907098 949.61278949347 L 446.23681907098 1020.91278949347 C 440.83681907098 1026.31278949347 440.83681907098 1034.91278949347 446.23681907098 1040.31278949347 Z"/><path fill="#701f95" transform="matrix(0.48436737691645554 0 0 0.48436737691645565 8.952608636634757 58.444504389553174)" d="M 439.83681907098 808.71278949347 L 517.63681907098 886.41278949347 C 523.03681907098 891.81278949347 531.63681907098 891.81278949347 537.03681907098 886.41278949347 L 614.73681907098 808.71278949347 C 620.13681907098 803.31278949347 620.13681907098 794.71278949347 614.73681907098 789.31278949347 L 537.03681907098 711.61278949347 C 531.63681907098 706.21278949347 523.03681907098 706.21278949347 517.63681907098 711.61278949347 L 439.83681907098 789.41278949347 C 434.43681907098 794.71278949347 434.43681907098 803.41278949347 439.83681907098 808.71278949347 Z"/><path id="text" transform="matrix(1.4318956197815653 0 0 1.4318956197815653 286.6939964729805 112.77851103321095)" d="M 109.7187895102 302.53777937759 C 105.8147895102 300.93777937759 102.6947895102 298.56977937759 100.3587895102 295.43377937759 C 98.0227895102 292.29777937759 96.7907895102 288.52177937759 96.6627895102 284.10577937759 L 114.1347895102 284.10577937759 C 114.3907895102 286.60177937759 115.2547895102 288.50577937759 116.7267895102 289.81777937759 C 118.1987895102 291.12977937759 120.1187895102 291.78577937759 122.4867895102 291.78577937759 C 124.9187895102 291.78577937759 126.8387895102 291.22577937759 128.2467895102 290.10577937759 C 129.6547895102 288.98577937759 130.3587895102 287.43377937759 130.3587895102 285.44977937759 C 130.3587895102 283.78577937759 129.7987895102 282.40977937759 128.6787895102 281.32177937759 C 127.5587895102 280.23377937759 126.1827895102 279.33777937759 124.5507895102 278.63377937759 C 122.9187895102 277.92977937759 120.5987895102 277.12977937759 117.5907895102 276.23377937759 C 113.2387895102 274.88977937759 109.6867895102 273.54577937759 106.9347895102 272.20177937759 C 104.1827895102 270.85777937759 101.8147895102 268.87377937759 99.8307895102 266.24977937759 C 97.8467895102 263.62577937759 96.8547895102 260.20177937759 96.8547895102 255.97777937759 C 96.8547895102 249.70577937759 99.1267895102 244.79377937759 103.6707895102 241.24177937759 C 108.2147895102 237.68977937759 114.1347895102 235.91377937759 121.4307895102 235.91377937759 C 128.8547895102 235.91377937759 134.8387895102 237.68977937759 139.3827895102 241.24177937759 C 143.9267895102 244.79377937759 146.3587895102 249.73777937759 146.6787895102 256.07377937759 L 128.9187895102 256.07377937759 C 128.7907895102 253.89777937759 127.9907895102 252.18577937759 126.5187895102 250.93777937759 C 125.0467895102 249.68977937759 123.1587895102 249.06577937759 120.8547895102 249.06577937759 C 118.8707895102 249.06577937759 117.2707895102 249.59377937759 116.0547895102 250.64977937759 C 114.8387895102 251.70577937759 114.2307895102 253.22577937759 114.2307895102 255.20977937759 C 114.2307895102 257.38577937759 115.2547895102 259.08177937759 117.3027895102 260.29777937759 C 119.3507895102 261.51377937759 122.5507895102 262.82577937759 126.9027895102 264.23377937759 C 131.2547895102 265.70577937759 134.7907895102 267.11377937759 137.5107895102 268.45777937759 C 140.2307895102 269.80177937759 142.5827895102 271.75377937759 144.5667895102 274.31377937759 C 146.5507895102 276.87377937759 147.5427895102 280.16977937759 147.5427895102 284.20177937759 C 147.5427895102 288.04177937759 146.5667895102 291.52977937759 144.6147895102 294.66577937759 C 142.6627895102 297.80177937759 139.8307895102 300.29777937759 136.1187895102 302.15377937759 C 132.4067895102 304.00977937759 128.0227895102 304.93777937759 122.9667895102 304.93777937759 C 118.0387895102 304.93777937759 113.6227895102 304.13777937759 109.7187895102 302.53777937759 Z M 208.8867895102 292.36177937759 L 183.7347895102 292.36177937759 L 179.7027895102 304.26577937759 L 162.5187895102 304.26577937759 L 186.9027895102 236.87377937759 L 205.9107895102 236.87377937759 L 230.2947895102 304.26577937759 L 212.9187895102 304.26577937759 L 208.8867895102 292.36177937759 Z M 204.6627895102 279.68977937759 L 196.3107895102 255.01777937759 L 188.0547895102 279.68977937759 L 204.6627895102 279.68977937759 Z M 323.3187895102 236.87377937759 L 323.3187895102 304.26577937759 L 306.9027895102 304.26577937759 L 306.9027895102 263.84977937759 L 291.8307895102 304.26577937759 L 278.5827895102 304.26577937759 L 263.4147895102 263.75377937759 L 263.4147895102 304.26577937759 L 246.9987895102 304.26577937759 L 246.9987895102 236.87377937759 L 266.3907895102 236.87377937759 L 285.3027895102 283.52977937759 L 304.0227895102 236.87377937759 L 323.3187895102 236.87377937759 Z M 355.5747895102 302.53777937759 C 351.6707895102 300.93777937759 348.5507895102 298.56977937759 346.2147895102 295.43377937759 C 343.8787895102 292.29777937759 342.6467895102 288.52177937759 342.5187895102 284.10577937759 L 359.9907895102 284.10577937759 C 360.2467895102 286.60177937759 361.1107895102 288.50577937759 362.5827895102 289.81777937759 C 364.0547895102 291.12977937759 365.9747895102 291.78577937759 368.3427895102 291.78577937759 C 370.7747895102 291.78577937759 372.6947895102 291.22577937759 374.1027895102 290.10577937759 C 375.5107895102 288.98577937759 376.2147895102 287.43377937759 376.2147895102 285.44977937759 C 376.2147895102 283.78577937759 375.6547895102 282.40977937759 374.5347895102 281.32177937759 C 373.4147895102 280.23377937759 372.0387895102 279.33777937759 370.4067895102 278.63377937759 C 368.7747895102 277.92977937759 366.4547895102 277.12977937759 363.4467895102 276.23377937759 C 359.0947895102 274.88977937759 355.5427895102 273.54577937759 352.7907895102 272.20177937759 C 350.0387895102 270.85777937759 347.6707895102 268.87377937759 345.6867895102 266.24977937759 C 343.7027895102 263.62577937759 342.7107895102 260.20177937759 342.7107895102 255.97777937759 C 342.7107895102 249.70577937759 344.9827895102 244.79377937759 349.5267895102 241.24177937759 C 354.0707895102 237.68977937759 359.9907895102 235.91377937759 367.2867895102 235.91377937759 C 374.7107895102 235.91377937759 380.6947895102 237.68977937759 385.2387895102 241.24177937759 C 389.7827895102 244.79377937759 392.2147895102 249.73777937759 392.5347895102 256.07377937759 L 374.7747895102 256.07377937759 C 374.6467895102 253.89777937759 373.8467895102 252.18577937759 372.3747895102 250.93777937759 C 370.9027895102 249.68977937759 369.0147895102 249.06577937759 366.7107895102 249.06577937759 C 364.7267895102 249.06577937759 363.1267895102 249.59377937759 361.9107895102 250.64977937759 C 360.6947895102 251.70577937759 360.0867895102 253.22577937759 360.0867895102 255.20977937759 C 360.0867895102 257.38577937759 361.1107895102 259.08177937759 363.1587895102 260.29777937759 C 365.2067895102 261.51377937759 368.4067895102 262.82577937759 372.7587895102 264.23377937759 C 377.1107895102 265.70577937759 380.6467895102 267.11377937759 383.3667895102 268.45777937759 C 386.0867895102 269.80177937759 388.4387895102 271.75377937759 390.4227895102 274.31377937759 C 392.4067895102 276.87377937759 393.3987895102 280.16977937759 393.3987895102 284.20177937759 C 393.3987895102 288.04177937759 392.4227895102 291.52977937759 390.4707895102 294.66577937759 C 388.5187895102 297.80177937759 385.6867895102 300.29777937759 381.9747895102 302.15377937759 C 378.2627895102 304.00977937759 373.8787895102 304.93777937759 368.8227895102 304.93777937759 C 363.8947895102 304.93777937759 359.4787895102 304.13777937759 355.5747895102 302.53777937759 Z"/></svg>